<svg width="826" height="215" viewBox="0 0 826 215" fill="none" xmlns="http://www.w3.org/2000/svg">
<g clip-path="url(#clip0_0_1)">
<path d="M92.9911 6.04934C45.0512 6.04934 6.04946 45.0511 6.04946 92.9918C6.04946 140.932 45.0513 179.936 92.9911 179.936C140.931 179.936 179.935 140.932 179.935 92.9918C179.935 45.0511 140.931 6.04934 92.9911 6.04934ZM92.9911 185.982C41.7156 185.982 0 144.266 0 92.9918C0 41.7164 41.7157 -0.00012207 92.9911 -0.00012207C144.266 -0.00012207 185.982 41.7163 185.982 92.9918C185.982 144.266 144.266 185.982 92.9911 185.982Z" fill="#030405"/>
<path d="M98.2339 92.9915C98.2339 95.8874 95.8881 98.235 92.9912 98.235C90.0955 98.235 87.748 95.8874 87.748 92.9915C87.748 90.0956 90.0955 87.7481 92.9912 87.7481C95.8881 87.7481 98.2339 90.0956 98.2339 92.9915Z" fill="#030405"/>
<path d="M91.0779 95.1879L57.4703 62.0397L94.9049 90.7955L91.0779 95.1879Z" fill="#030405"/>
<path d="M91.0779 90.7951L137.519 54.1905L94.9051 95.1875L91.0781 90.7951H91.0779Z" fill="#030405"/>
<path d="M92.991 28.8047C91.784 28.8047 90.8062 27.8268 90.8062 26.6199V17.9271C90.8062 16.7201 91.784 15.7422 92.991 15.7422C94.1977 15.7422 95.1757 16.7201 95.1757 17.9271V26.6199C95.1757 27.8268 94.1977 28.8047 92.991 28.8047Z" fill="#030405"/>
<path d="M59.8079 37.6974C59.0525 37.6974 58.3186 37.3056 57.9139 36.6043L53.5678 29.0763C52.964 28.0317 53.3224 26.6953 54.3673 26.0922C55.4148 25.4884 56.749 25.8475 57.3514 26.8917L61.6975 34.4197C62.3012 35.4643 61.9427 36.8006 60.8981 37.4038C60.5538 37.6029 60.1783 37.6974 59.8079 37.6974Z" fill="#030405"/>
<path d="M35.5098 61.9911C35.1393 61.9911 34.7637 61.8965 34.4196 61.6974L26.8916 57.3513C25.8468 56.7482 25.4883 55.4119 26.0922 54.3672C26.6939 53.3231 28.0323 52.9639 29.0763 53.5678L36.6043 57.9139C37.6491 58.517 38.0076 59.8534 37.4037 60.898C36.999 61.5986 36.2652 61.9911 35.5098 61.9911Z" fill="#030405"/>
<path d="M26.6198 95.1768H17.927C16.7201 95.1768 15.7422 94.1989 15.7422 92.9919C15.7422 91.785 16.7201 90.8071 17.927 90.8071H26.6198C27.8268 90.8071 28.8047 91.785 28.8047 92.9919C28.8047 94.1989 27.8268 95.1768 26.6198 95.1768Z" fill="#030405"/>
<path d="M27.9861 132.709C27.2307 132.709 26.4968 132.317 26.0922 131.616C25.4883 130.57 25.8468 129.234 26.8916 128.632L34.4196 124.286C35.4657 123.683 36.8013 124.041 37.4037 125.085C38.0076 126.13 37.6491 127.466 36.6043 128.068L29.0763 132.415C28.7322 132.615 28.3566 132.709 27.9861 132.709Z" fill="#030405"/>
<path d="M55.4573 160.185C55.0867 160.185 54.7111 160.089 54.367 159.891C53.3222 159.288 52.9637 157.952 53.5676 156.907L57.9137 149.379C58.5183 148.335 59.8532 147.975 60.8978 148.579C61.9425 149.182 62.3009 150.52 61.6973 151.563L57.3511 159.092C56.9464 159.792 56.2126 160.185 55.4573 160.185Z" fill="#030405"/>
<path d="M92.991 170.24C91.784 170.24 90.8062 169.262 90.8062 168.055V159.362C90.8062 158.156 91.784 157.178 92.991 157.178C94.1977 157.178 95.1757 158.156 95.1757 159.362V168.055C95.1757 169.262 94.1977 170.24 92.991 170.24Z" fill="#030405"/>
<path d="M130.526 160.185C129.771 160.185 129.036 159.793 128.632 159.092L124.285 151.563C123.681 150.52 124.039 149.182 125.084 148.579C126.128 147.975 127.466 148.331 128.068 149.379L132.416 156.907C133.019 157.952 132.661 159.288 131.615 159.891C131.272 160.089 130.896 160.185 130.526 160.185Z" fill="#030405"/>
<path d="M157.998 132.709C157.628 132.709 157.252 132.615 156.906 132.417L149.378 128.07C148.333 127.466 147.976 126.13 148.579 125.085C149.183 124.041 150.521 123.685 151.563 124.286L159.093 128.632C160.138 129.234 160.494 130.57 159.892 131.616C159.488 132.317 158.753 132.709 157.998 132.709Z" fill="#030405"/>
<path d="M168.057 95.1768H159.362C158.156 95.1768 157.177 94.1989 157.177 92.9919C157.177 91.785 158.156 90.8071 159.362 90.8071H168.057C169.261 90.8071 170.241 91.785 170.241 92.9919C170.241 94.1989 169.261 95.1768 168.057 95.1768Z" fill="#030405"/>
<path d="M150.473 61.9911C149.718 61.9911 148.983 61.5993 148.579 60.898C147.976 59.8526 148.332 58.517 149.378 57.9132L156.906 53.5671C157.95 52.9646 159.29 53.3202 159.892 54.3672C160.494 55.4126 160.138 56.7482 159.093 57.352L151.563 61.6982C151.219 61.8964 150.843 61.9911 150.473 61.9911Z" fill="#030405"/>
<path d="M126.176 37.6973C125.804 37.6973 125.428 37.6029 125.084 37.4038C124.039 36.8006 123.681 35.4643 124.285 34.4196L128.632 26.8917C129.234 25.8454 130.572 25.4876 131.615 26.0922C132.661 26.6953 133.019 28.0316 132.416 29.0763L128.068 36.6043C127.664 37.3056 126.929 37.6973 126.176 37.6973Z" fill="#030405"/>
</g>
<path d="M97.44 84.72C93.48 84.72 90.02 83.82 87.06 82.02C84.1 80.22 81.8 77.72 80.16 74.52C78.52 71.28 77.7 67.52 77.7 63.24C77.7 58.92 78.54 55.12 80.22 51.84C81.94 48.52 84.36 45.94 87.48 44.1C90.64 42.22 94.38 41.28 98.7 41.28C103.62 41.28 107.7 42.46 110.94 44.82C114.18 47.18 116.28 50.44 117.24 54.6H108.66C108.02 52.64 106.86 51.12 105.18 50.04C103.5 48.92 101.34 48.36 98.7 48.36C94.5 48.36 91.26 49.7 88.98 52.38C86.7 55.02 85.56 58.66 85.56 63.3C85.56 67.94 86.68 71.54 88.92 74.1C91.2 76.62 94.28 77.88 98.16 77.88C101.96 77.88 104.82 76.86 106.74 74.82C108.7 72.74 109.88 70.02 110.28 66.66H99.66V60.9H118.02V84H110.94L110.34 78.48C108.98 80.48 107.28 82.02 105.24 83.1C103.2 84.18 100.6 84.72 97.44 84.72ZM145.166 84.72C140.966 84.72 137.286 83.8 134.126 81.96C131.006 80.12 128.546 77.58 126.746 74.34C124.986 71.06 124.106 67.28 124.106 63C124.106 58.72 124.986 54.96 126.746 51.72C128.546 48.44 131.006 45.88 134.126 44.04C137.286 42.2 140.966 41.28 145.166 41.28C149.326 41.28 152.986 42.2 156.146 44.04C159.306 45.88 161.766 48.44 163.526 51.72C165.286 54.96 166.166 58.72 166.166 63C166.166 67.28 165.286 71.06 163.526 74.34C161.766 77.58 159.306 80.12 156.146 81.96C152.986 83.8 149.326 84.72 145.166 84.72ZM145.166 77.82C149.166 77.82 152.346 76.5 154.706 73.86C157.106 71.22 158.306 67.6 158.306 63C158.306 58.4 157.106 54.78 154.706 52.14C152.346 49.5 149.166 48.18 145.166 48.18C141.166 48.18 137.966 49.5 135.566 52.14C133.166 54.78 131.966 58.4 131.966 63C131.966 67.6 133.166 71.22 135.566 73.86C137.966 76.5 141.166 77.82 145.166 77.82ZM172.947 84V42H188.367C191.727 42 194.487 42.58 196.647 43.74C198.847 44.86 200.487 46.4 201.567 48.36C202.647 50.28 203.187 52.42 203.187 54.78C203.187 57.34 202.507 59.68 201.147 61.8C199.827 63.92 197.747 65.46 194.907 66.42L203.607 84H194.787L186.987 67.44H180.627V84H172.947ZM180.627 61.8H187.887C190.447 61.8 192.327 61.18 193.527 59.94C194.727 58.7 195.327 57.06 195.327 55.02C195.327 53.02 194.727 51.42 193.527 50.22C192.367 49.02 190.467 48.42 187.827 48.42H180.627V61.8ZM207.63 84L222.99 42H231.63L246.99 84L243.81 85.5C242.29 86.22 241.27 86.9 240.75 87.54C240.23 88.22 239.97 88.9 239.97 89.58C239.97 90.38 240.25 91 240.81 91.44C241.37 91.88 242.13 92.1 243.09 92.1C244.33 92.1 245.73 91.8 247.29 91.2V95.76C246.53 96 245.69 96.2 244.77 96.36C243.89 96.52 242.99 96.6 242.07 96.6C239.91 96.6 238.03 96.1 236.43 95.1C234.87 94.1 234.09 92.48 234.09 90.24C234.09 89 234.41 87.82 235.05 86.7C235.73 85.58 236.93 84.48 238.65 83.4L235.47 74.28H219.09L215.67 84H207.63ZM221.19 68.28H233.37L227.25 50.82L221.19 68.28ZM269.37 84.72C265.13 84.72 261.49 83.82 258.45 82.02C255.41 80.18 253.07 77.64 251.43 74.4C249.79 71.12 248.97 67.34 248.97 63.06C248.97 58.78 249.79 55 251.43 51.72C253.07 48.44 255.41 45.88 258.45 44.04C261.49 42.2 265.13 41.28 269.37 41.28C274.41 41.28 278.53 42.54 281.73 45.06C284.97 47.54 286.99 51.04 287.79 55.56H279.33C278.81 53.28 277.69 51.5 275.97 50.22C274.29 48.9 272.05 48.24 269.25 48.24C265.37 48.24 262.33 49.56 260.13 52.2C257.93 54.84 256.83 58.46 256.83 63.06C256.83 67.66 257.93 71.28 260.13 73.92C262.33 76.52 265.37 77.82 269.25 77.82C272.05 77.82 274.29 77.22 275.97 76.02C277.69 74.78 278.81 73.08 279.33 70.92H287.79C286.99 75.24 284.97 78.62 281.73 81.06C278.53 83.5 274.41 84.72 269.37 84.72ZM291.36 84L306.72 42H315.36L330.72 84H322.56L319.2 74.28H302.82L299.4 84H291.36ZM304.92 68.28H317.1L310.98 50.82L304.92 68.28Z" fill="#FFF500"/>
<path d="M79.44 144V102H93.24C96.52 102 99.22 102.54 101.34 103.62C103.46 104.7 105.02 106.16 106.02 108C107.06 109.84 107.58 111.92 107.58 114.24C107.58 116.52 107.08 118.58 106.08 120.42C105.08 122.26 103.52 123.74 101.4 124.86C99.28 125.94 96.56 126.48 93.24 126.48H84.48V144H79.44ZM84.48 122.22H93.12C96.48 122.22 98.86 121.52 100.26 120.12C101.7 118.68 102.42 116.72 102.42 114.24C102.42 111.72 101.7 109.76 100.26 108.36C98.86 106.92 96.48 106.2 93.12 106.2H84.48V122.22ZM114.186 144V102H127.746C131.026 102 133.706 102.54 135.786 103.62C137.866 104.7 139.406 106.18 140.406 108.06C141.406 109.94 141.906 112.02 141.906 114.3C141.906 116.94 141.186 119.32 139.746 121.44C138.346 123.56 136.146 125.06 133.146 125.94L142.326 144H136.386L127.866 126.66H127.506H119.226V144H114.186ZM119.226 122.7H127.386C130.626 122.7 132.986 121.92 134.466 120.36C135.946 118.8 136.686 116.8 136.686 114.36C136.686 111.88 135.946 109.92 134.466 108.48C133.026 107 130.646 106.26 127.326 106.26H119.226V122.7ZM168.833 144.72C164.713 144.72 161.093 143.82 157.973 142.02C154.893 140.18 152.473 137.62 150.713 134.34C148.993 131.06 148.133 127.28 148.133 123C148.133 118.72 148.993 114.96 150.713 111.72C152.473 108.44 154.893 105.88 157.973 104.04C161.093 102.2 164.713 101.28 168.833 101.28C172.993 101.28 176.613 102.2 179.693 104.04C182.813 105.88 185.233 108.44 186.953 111.72C188.673 114.96 189.533 118.72 189.533 123C189.533 127.28 188.673 131.06 186.953 134.34C185.233 137.62 182.813 140.18 179.693 142.02C176.613 143.82 172.993 144.72 168.833 144.72ZM168.833 140.28C171.913 140.28 174.613 139.6 176.933 138.24C179.293 136.84 181.113 134.86 182.393 132.3C183.713 129.7 184.373 126.6 184.373 123C184.373 119.4 183.713 116.32 182.393 113.76C181.113 111.2 179.293 109.24 176.933 107.88C174.613 106.48 171.913 105.78 168.833 105.78C165.753 105.78 163.033 106.48 160.673 107.88C158.353 109.24 156.533 111.2 155.213 113.76C153.933 116.32 153.293 119.4 153.293 123C153.293 126.6 153.933 129.7 155.213 132.3C156.533 134.86 158.353 136.84 160.673 138.24C163.033 139.6 165.753 140.28 168.833 140.28ZM196.803 144V102H202.683L217.803 131.28L232.803 102H238.743V144H233.703V111L219.663 138H215.883L201.843 111.06V144H196.803ZM266.684 144.72C262.564 144.72 258.944 143.82 255.824 142.02C252.744 140.18 250.324 137.62 248.564 134.34C246.844 131.06 245.984 127.28 245.984 123C245.984 118.72 246.844 114.96 248.564 111.72C250.324 108.44 252.744 105.88 255.824 104.04C258.944 102.2 262.564 101.28 266.684 101.28C270.844 101.28 274.464 102.2 277.544 104.04C280.664 105.88 283.084 108.44 284.804 111.72C286.524 114.96 287.384 118.72 287.384 123C287.384 127.28 286.524 131.06 284.804 134.34C283.084 137.62 280.664 140.18 277.544 142.02C274.464 143.82 270.844 144.72 266.684 144.72ZM266.684 140.28C269.764 140.28 272.464 139.6 274.784 138.24C277.144 136.84 278.964 134.86 280.244 132.3C281.564 129.7 282.224 126.6 282.224 123C282.224 119.4 281.564 116.32 280.244 113.76C278.964 111.2 277.144 109.24 274.784 107.88C272.464 106.48 269.764 105.78 266.684 105.78C263.604 105.78 260.884 106.48 258.524 107.88C256.204 109.24 254.384 111.2 253.064 113.76C251.784 116.32 251.144 119.4 251.144 123C251.144 126.6 251.784 129.7 253.064 132.3C254.384 134.86 256.204 136.84 258.524 138.24C260.884 139.6 263.604 140.28 266.684 140.28ZM313.075 144.72C308.955 144.72 305.395 143.82 302.395 142.02C299.435 140.18 297.135 137.64 295.495 134.4C293.855 131.12 293.035 127.32 293.035 123C293.035 118.72 293.855 114.96 295.495 111.72C297.135 108.44 299.435 105.88 302.395 104.04C305.395 102.2 308.955 101.28 313.075 101.28C317.875 101.28 321.775 102.44 324.775 104.76C327.815 107.04 329.755 110.24 330.595 114.36H325.015C324.375 111.76 323.055 109.68 321.055 108.12C319.095 106.52 316.435 105.72 313.075 105.72C310.075 105.72 307.455 106.42 305.215 107.82C302.975 109.18 301.235 111.16 299.995 113.76C298.795 116.32 298.195 119.4 298.195 123C298.195 126.6 298.795 129.7 299.995 132.3C301.235 134.86 302.975 136.84 305.215 138.24C307.455 139.6 310.075 140.28 313.075 140.28C316.435 140.28 319.095 139.52 321.055 138C323.055 136.44 324.375 134.38 325.015 131.82H330.595C329.755 135.86 327.815 139.02 324.775 141.3C321.775 143.58 317.875 144.72 313.075 144.72ZM347.198 144.72C343.398 144.72 340.418 143.66 338.258 141.54C336.098 139.42 335.018 136.48 335.018 132.72H340.118C340.118 134.84 340.638 136.62 341.678 138.06C342.718 139.5 344.538 140.22 347.138 140.22C349.658 140.22 351.398 139.52 352.358 138.12C353.358 136.72 353.858 134.98 353.858 132.9V102H358.898V132.9C358.898 136.62 357.858 139.52 355.778 141.6C353.738 143.68 350.878 144.72 347.198 144.72ZM363.323 144L378.803 102H384.143L399.563 144H394.223L390.383 133.2H372.503L368.603 144H363.323ZM374.003 129.12H388.883L381.443 108.36L374.003 129.12Z" fill="white"/>
<rect width="204" height="51" transform="translate(355 15)" fill="#111111"/>
<path d="M370.04 49L365.6 32.2H368.888L371.912 45.568L375.464 32.2H378.848L382.304 45.568L385.328 32.2H388.64L384.08 49H380.432L377.096 36.544L373.664 49H370.04ZM391.442 49V41.968L389.714 42.568V40.024L391.442 39.424V32.2H394.514V38.416L396.986 37.576V40.12L394.514 40.96V46.6H401.954V49H391.442ZM403.615 49L409.759 32.2H413.215L419.359 49H416.095L414.751 45.112H408.199L406.831 49H403.615ZM409.039 42.712H413.911L411.463 35.728L409.039 42.712ZM427.259 49.288C426.027 49.288 424.939 49.08 423.995 48.664C423.051 48.232 422.307 47.624 421.763 46.84C421.219 46.04 420.939 45.072 420.923 43.936H424.163C424.195 44.72 424.475 45.384 425.003 45.928C425.547 46.456 426.291 46.72 427.235 46.72C428.051 46.72 428.699 46.528 429.179 46.144C429.659 45.744 429.899 45.216 429.899 44.56C429.899 43.872 429.683 43.336 429.251 42.952C428.835 42.568 428.275 42.256 427.571 42.016C426.867 41.776 426.115 41.52 425.315 41.248C424.019 40.8 423.027 40.224 422.339 39.52C421.667 38.816 421.331 37.88 421.331 36.712C421.315 35.72 421.547 34.872 422.027 34.168C422.523 33.448 423.195 32.896 424.043 32.512C424.891 32.112 425.867 31.912 426.971 31.912C428.091 31.912 429.075 32.112 429.923 32.512C430.787 32.912 431.459 33.472 431.939 34.192C432.435 34.912 432.699 35.768 432.731 36.76H429.443C429.427 36.168 429.195 35.648 428.747 35.2C428.315 34.736 427.707 34.504 426.923 34.504C426.251 34.488 425.683 34.656 425.219 35.008C424.771 35.344 424.547 35.84 424.547 36.496C424.547 37.056 424.723 37.504 425.075 37.84C425.427 38.16 425.907 38.432 426.515 38.656C427.123 38.88 427.819 39.12 428.603 39.376C429.435 39.664 430.195 40 430.883 40.384C431.571 40.768 432.123 41.28 432.539 41.92C432.955 42.544 433.163 43.352 433.163 44.344C433.163 45.224 432.939 46.04 432.491 46.792C432.043 47.544 431.379 48.152 430.499 48.616C429.619 49.064 428.539 49.288 427.259 49.288ZM425.819 31.24V29.08L431.243 26.152V28.648L425.819 31.24ZM435.843 49V32.2H438.915L446.811 44.032V32.2H449.883V49H446.811L438.915 37.192V49H435.843ZM453.14 49V32.2H456.212V49H453.14ZM459.468 49V32.2H470.436V34.672H462.54V39.28H469.716V41.68H462.54V46.528H470.436V49H459.468ZM483.142 49V33.856H478.126V32.2H490.174V33.856H485.158V49H483.142ZM492.635 49V32.2H498.059C499.371 32.2 500.443 32.416 501.275 32.848C502.107 33.28 502.723 33.872 503.123 34.624C503.523 35.376 503.723 36.208 503.723 37.12C503.723 38.176 503.435 39.128 502.859 39.976C502.299 40.824 501.419 41.424 500.219 41.776L503.891 49H501.515L498.107 42.064H497.963H494.651V49H492.635ZM494.651 40.48H497.915C499.211 40.48 500.155 40.168 500.747 39.544C501.339 38.92 501.635 38.12 501.635 37.144C501.635 36.152 501.339 35.368 500.747 34.792C500.171 34.2 499.219 33.904 497.891 33.904H494.651V40.48ZM509.92 49.024L505.312 32.2H507.472L511.096 46.624L515.224 32.2H517.456L521.464 46.624L525.136 32.2H527.296L522.592 49H520.288L516.28 35.128L512.176 49L509.92 49.024ZM526.923 49L533.115 32.2H535.251L541.419 49H539.283L537.747 44.68H530.595L529.035 49H526.923ZM531.195 43.048H537.147L534.171 34.744L531.195 43.048ZM544.229 44.344L543.989 32.2H546.173L545.933 44.344H544.229ZM545.141 49.12C544.741 49.12 544.405 48.992 544.133 48.736C543.877 48.464 543.749 48.136 543.749 47.752C543.749 47.368 543.877 47.048 544.133 46.792C544.405 46.52 544.741 46.384 545.141 46.384C545.525 46.384 545.845 46.52 546.101 46.792C546.373 47.048 546.509 47.368 546.509 47.752C546.509 48.136 546.373 48.464 546.101 48.736C545.845 48.992 545.525 49.12 545.141 49.12Z" fill="white"/>
<path d="M372 66H355V83L372 66Z" fill="#111111"/>
<path d="M599.332 32V19.4H603.4C604.384 19.4 605.188 19.562 605.812 19.886C606.436 20.21 606.898 20.654 607.198 21.218C607.498 21.782 607.648 22.406 607.648 23.09C607.648 23.882 607.432 24.596 607 25.232C606.58 25.868 605.92 26.318 605.02 26.582L607.774 32H605.992L603.436 26.798H603.328H600.844V32H599.332ZM600.844 25.61H603.292C604.264 25.61 604.972 25.376 605.416 24.908C605.86 24.44 606.082 23.84 606.082 23.108C606.082 22.364 605.86 21.776 605.416 21.344C604.984 20.9 604.27 20.678 603.274 20.678H600.844V25.61ZM609.21 32L613.854 19.4H615.456L620.082 32H618.48L617.328 28.76H611.964L610.794 32H609.21ZM612.414 27.536H616.878L614.646 21.308L612.414 27.536ZM621.955 32V19.4H626.383C627.271 19.4 628.003 19.544 628.579 19.832C629.167 20.108 629.605 20.492 629.893 20.984C630.181 21.464 630.325 22.004 630.325 22.604C630.325 23.42 630.103 24.062 629.659 24.53C629.227 24.998 628.705 25.322 628.093 25.502C628.561 25.586 628.987 25.772 629.371 26.06C629.755 26.348 630.055 26.708 630.271 27.14C630.499 27.572 630.613 28.046 630.613 28.562C630.613 29.198 630.457 29.78 630.145 30.308C629.833 30.824 629.371 31.238 628.759 31.55C628.147 31.85 627.403 32 626.527 32H621.955ZM623.467 24.908H626.275C627.079 24.908 627.697 24.722 628.129 24.35C628.561 23.966 628.777 23.438 628.777 22.766C628.777 22.13 628.561 21.62 628.129 21.236C627.709 20.852 627.073 20.66 626.221 20.66H623.467V24.908ZM623.467 30.74H626.365C627.229 30.74 627.895 30.542 628.363 30.146C628.831 29.738 629.065 29.174 629.065 28.454C629.065 27.746 628.819 27.182 628.327 26.762C627.835 26.33 627.169 26.114 626.329 26.114H623.467V30.74ZM631.78 32L636.424 19.4H638.026L642.652 32H641.05L639.898 28.76H634.534L633.364 32H631.78ZM634.984 27.536H639.448L637.216 21.308L634.984 27.536ZM646.054 32V20.642H642.292V19.4H651.328V20.642H647.566V32H646.054ZM656.306 32V27.212L652.202 19.4H653.912L657.062 25.772L660.212 19.4H661.904L657.818 27.212V32H656.306ZM668.361 32V19.4H669.873L676.587 29.498V19.4H678.099V32H676.587L669.873 21.902V32H668.361ZM679.979 32L684.623 19.4H686.225L690.851 32H689.249L688.097 28.76H682.733L681.563 32H679.979ZM683.183 27.536H687.647L685.415 21.308L683.183 27.536ZM694.051 32.018L690.595 19.4H692.215L694.933 30.218L698.029 19.4H699.703L702.709 30.218L705.463 19.4H707.083L703.555 32H701.827L698.821 21.596L695.743 32L694.051 32.018ZM708.861 32V19.4H716.655V20.642H710.373V25.034H716.115V26.258H710.373V30.758H716.655V32H708.861ZM721.973 32V20.642H718.211V19.4H727.247V20.642H723.485V32H721.973ZM733.857 32V19.4H737.727C739.947 19.4 741.579 19.964 742.623 21.092C743.679 22.22 744.207 23.768 744.207 25.736C744.207 27.668 743.679 29.198 742.623 30.326C741.579 31.442 739.947 32 737.727 32H733.857ZM735.369 30.74H737.691C738.915 30.74 739.887 30.542 740.607 30.146C741.339 29.738 741.861 29.162 742.173 28.418C742.485 27.662 742.641 26.768 742.641 25.736C742.641 24.68 742.485 23.774 742.173 23.018C741.861 22.262 741.339 21.68 740.607 21.272C739.887 20.864 738.915 20.66 737.691 20.66H735.369V30.74ZM752.115 32.216C750.879 32.216 749.793 31.946 748.857 31.406C747.933 30.854 747.207 30.086 746.679 29.102C746.163 28.118 745.905 26.984 745.905 25.7C745.905 24.416 746.163 23.288 746.679 22.316C747.207 21.332 747.933 20.564 748.857 20.012C749.793 19.46 750.879 19.184 752.115 19.184C753.363 19.184 754.449 19.46 755.373 20.012C756.309 20.564 757.035 21.332 757.551 22.316C758.067 23.288 758.325 24.416 758.325 25.7C758.325 26.984 758.067 28.118 757.551 29.102C757.035 30.086 756.309 30.854 755.373 31.406C754.449 31.946 753.363 32.216 752.115 32.216ZM752.115 30.884C753.039 30.884 753.849 30.68 754.545 30.272C755.253 29.852 755.799 29.258 756.183 28.49C756.579 27.71 756.777 26.78 756.777 25.7C756.777 24.62 756.579 23.696 756.183 22.928C755.799 22.16 755.253 21.572 754.545 21.164C753.849 20.744 753.039 20.534 752.115 20.534C751.191 20.534 750.375 20.744 749.667 21.164C748.971 21.572 748.425 22.16 748.029 22.928C747.645 23.696 747.453 24.62 747.453 25.7C747.453 26.78 747.645 27.71 748.029 28.49C748.425 29.258 748.971 29.852 749.667 30.272C750.375 30.68 751.191 30.884 752.115 30.884Z" fill="#111111"/>
<path d="M631.92 150.728C625.296 150.728 619.344 149.528 614.064 147.128C608.784 144.632 604.608 141.224 601.536 136.904C598.56 132.488 597.072 127.4 597.072 121.64C597.072 115.496 598.848 109.976 602.4 105.08C606.048 100.184 610.848 96.92 616.8 95.288C611.328 93.464 607.104 90.536 604.128 86.504C601.152 82.472 599.664 78.056 599.664 73.256C599.664 68.36 600.96 63.896 603.552 59.864C606.144 55.736 609.84 52.472 614.64 50.072C619.44 47.672 625.2 46.472 631.92 46.472C638.64 46.472 644.4 47.672 649.2 50.072C654 52.472 657.696 55.736 660.288 59.864C662.88 63.896 664.176 68.36 664.176 73.256C664.176 77.96 662.688 82.376 659.712 86.504C656.736 90.536 652.512 93.464 647.04 95.288C652.992 96.92 657.744 100.184 661.296 105.08C664.944 109.976 666.768 115.496 666.768 121.64C666.768 127.4 665.232 132.488 662.16 136.904C659.184 141.224 655.056 144.632 649.776 147.128C644.496 149.528 638.544 150.728 631.92 150.728ZM631.92 90.968C638.064 90.968 642.912 89.432 646.464 86.36C650.112 83.192 651.936 79.064 651.936 73.976C651.936 68.312 650.16 64.04 646.608 61.16C643.056 58.28 638.16 56.84 631.92 56.84C625.68 56.84 620.784 58.28 617.232 61.16C613.776 64.04 612.048 68.312 612.048 73.976C612.048 79.064 613.824 83.192 617.376 86.36C620.928 89.432 625.776 90.968 631.92 90.968ZM631.92 140.072C639.504 140.072 645.168 138.344 648.912 134.888C652.752 131.336 654.672 126.68 654.672 120.92C654.672 114.392 652.608 109.448 648.48 106.088C644.352 102.728 638.832 101.048 631.92 101.048C625.008 101.048 619.488 102.728 615.36 106.088C611.232 109.448 609.168 114.392 609.168 120.92C609.168 126.68 611.04 131.336 614.784 134.888C618.624 138.344 624.336 140.072 631.92 140.072ZM725.859 150.728C716.931 150.728 709.203 148.568 702.675 144.248C696.243 139.832 691.299 133.736 687.843 125.96C684.387 118.088 682.659 108.968 682.659 98.6C682.659 88.232 684.387 79.16 687.843 71.384C691.299 63.512 696.243 57.416 702.675 53.096C709.203 48.68 716.931 46.472 725.859 46.472C734.787 46.472 742.467 48.68 748.899 53.096C755.331 57.416 760.275 63.512 763.731 71.384C767.187 79.16 768.915 88.232 768.915 98.6C768.915 108.968 767.187 118.088 763.731 125.96C760.275 133.736 755.331 139.832 748.899 144.248C742.467 148.568 734.787 150.728 725.859 150.728ZM725.859 140.072C731.715 140.072 736.947 138.44 741.555 135.176C746.259 131.816 749.907 127.064 752.499 120.92C755.187 114.68 756.531 107.24 756.531 98.6C756.531 89.96 755.187 82.568 752.499 76.424C749.907 70.28 746.259 65.576 741.555 62.312C736.947 58.952 731.715 57.272 725.859 57.272C719.907 57.272 714.627 58.952 710.019 62.312C705.411 65.576 701.763 70.28 699.075 76.424C696.387 82.568 695.043 89.96 695.043 98.6C695.043 107.24 696.387 114.68 699.075 120.92C701.763 127.064 705.411 131.816 710.019 135.176C714.627 138.44 719.907 140.072 725.859 140.072Z" fill="#FFF500"/>
<path d="M791 66.5C789.2 66.5 787.56 66.1 786.08 65.3C784.64 64.46 783.5 63.3 782.66 61.82C781.82 60.3 781.4 58.5 781.4 56.42C781.4 54.34 781.82 52.56 782.66 51.08C783.54 49.56 784.7 48.4 786.14 47.6C787.62 46.76 789.26 46.34 791.06 46.34C792.86 46.34 794.48 46.76 795.92 47.6C797.36 48.4 798.5 49.56 799.34 51.08C800.18 52.56 800.6 54.34 800.6 56.42C800.6 58.5 800.16 60.3 799.28 61.82C798.44 63.3 797.3 64.46 795.86 65.3C794.42 66.1 792.8 66.5 791 66.5ZM787.28 89L811.7 47H816.74L792.32 89H787.28ZM791 62.6C792.4 62.6 793.62 62.08 794.66 61.04C795.74 60 796.28 58.46 796.28 56.42C796.28 54.34 795.76 52.78 794.72 51.74C793.68 50.66 792.46 50.12 791.06 50.12C789.66 50.12 788.4 50.66 787.28 51.74C786.2 52.78 785.66 54.34 785.66 56.42C785.66 58.46 786.2 60 787.28 61.04C788.36 62.08 789.6 62.6 791 62.6ZM813.44 89.72C811.64 89.72 810 89.32 808.52 88.52C807.08 87.68 805.94 86.52 805.1 85.04C804.26 83.52 803.84 81.72 803.84 79.64C803.84 77.56 804.26 75.78 805.1 74.3C805.98 72.78 807.14 71.62 808.58 70.82C810.02 69.98 811.64 69.56 813.44 69.56C815.24 69.56 816.86 69.98 818.3 70.82C819.74 71.62 820.88 72.78 821.72 74.3C822.56 75.78 822.98 77.56 822.98 79.64C822.98 81.72 822.56 83.52 821.72 85.04C820.88 86.52 819.74 87.68 818.3 88.52C816.86 89.32 815.24 89.72 813.44 89.72ZM813.38 85.82C814.82 85.82 816.06 85.3 817.1 84.26C818.18 83.22 818.72 81.68 818.72 79.64C818.72 77.56 818.2 76 817.16 74.96C816.12 73.92 814.88 73.4 813.44 73.4C812.04 73.4 810.8 73.92 809.72 74.96C808.64 76 808.1 77.56 808.1 79.64C808.1 81.68 808.62 83.22 809.66 84.26C810.74 85.3 811.98 85.82 813.38 85.82Z" fill="#FFF500"/>
<circle cx="470" cy="162" r="53" fill="white"/>
<g clip-path="url(#clip1_0_1)">
<path d="M472.453 129.21L490.564 134.063L486.359 149.76L468.247 144.907L472.453 129.21Z" stroke="#E13535" stroke-width="2" stroke-linecap="round" stroke-linejoin="round"/>
<path d="M470.836 135.247L466.006 133.953L461.413 136.605L459.796 142.642L468.247 144.907L470.836 135.247Z" stroke="#E13535" stroke-width="2" stroke-linecap="round" stroke-linejoin="round"/>
<path d="M479.308 154.341C477.64 153.894 476.651 152.18 477.098 150.513C477.545 148.846 479.258 147.857 480.925 148.304C482.592 148.75 483.582 150.464 483.135 152.131C482.688 153.798 480.975 154.787 479.308 154.341Z" stroke="#E13535" stroke-width="2" stroke-linecap="round" stroke-linejoin="round"/>
<path d="M463.611 150.135C461.944 149.688 460.955 147.975 461.402 146.308C461.848 144.641 463.562 143.651 465.229 144.098C466.896 144.545 467.885 146.258 467.439 147.925C466.992 149.592 465.278 150.582 463.611 150.135Z" stroke="#E13535" stroke-width="2" stroke-linecap="round" stroke-linejoin="round"/>
</g>
<path d="M441.923 163.955C441.208 163.764 440.624 163.431 440.171 162.958C439.728 162.487 439.433 161.927 439.286 161.277C439.149 160.629 439.178 159.943 439.372 159.219C439.566 158.494 439.888 157.892 440.337 157.412C440.79 156.922 441.324 156.589 441.941 156.413C442.56 156.227 443.232 156.231 443.956 156.425C444.545 156.583 445.035 156.843 445.424 157.206C445.813 157.57 446.075 158.002 446.21 158.504L447.402 154.056L448.619 154.382L445.824 164.814L444.722 164.519L444.925 163.3C444.6 163.586 444.183 163.81 443.673 163.974C443.163 164.137 442.58 164.131 441.923 163.955ZM442.337 162.933C442.82 163.062 443.274 163.065 443.701 162.941C444.14 162.81 444.515 162.569 444.827 162.218C445.148 161.869 445.381 161.424 445.526 160.883C445.671 160.342 445.691 159.84 445.588 159.378C445.493 158.918 445.288 158.526 444.971 158.203C444.666 157.873 444.272 157.643 443.789 157.514C443.315 157.387 442.859 157.389 442.421 157.52C441.994 157.644 441.62 157.88 441.299 158.229C440.987 158.58 440.759 159.026 440.614 159.567C440.469 160.108 440.444 160.608 440.538 161.068C440.642 161.531 440.846 161.928 441.151 162.258C441.468 162.581 441.863 162.806 442.337 162.933ZM451.035 166.397C450.359 166.216 449.792 165.898 449.334 165.444C448.876 164.99 448.563 164.44 448.394 163.795C448.238 163.142 448.262 162.434 448.466 161.671C448.671 160.908 449.007 160.289 449.476 159.814C449.948 159.33 450.495 159.005 451.119 158.841C451.752 158.68 452.407 158.689 453.083 158.871C453.759 159.052 454.326 159.369 454.785 159.823C455.243 160.277 455.55 160.831 455.706 161.483C455.875 162.129 455.857 162.834 455.653 163.597C455.448 164.36 455.11 164.983 454.639 165.468C454.17 165.943 453.619 166.261 452.985 166.423C452.362 166.587 451.712 166.578 451.035 166.397ZM451.315 165.354C451.73 165.465 452.144 165.467 452.556 165.36C452.967 165.253 453.339 165.026 453.67 164.68C454 164.334 454.246 163.862 454.407 163.263C454.567 162.664 454.591 162.132 454.477 161.667C454.373 161.204 454.17 160.823 453.867 160.525C453.564 160.226 453.209 160.022 452.804 159.914C452.388 159.802 451.975 159.8 451.563 159.907C451.151 160.015 450.78 160.241 450.449 160.587C450.118 160.933 449.873 161.406 449.712 162.005C449.552 162.604 449.528 163.136 449.642 163.601C449.755 164.066 449.958 164.447 450.252 164.743C450.555 165.041 450.909 165.245 451.315 165.354ZM459.088 168.555C458.229 168.324 457.572 167.916 457.119 167.328C456.665 166.741 456.49 166.062 456.593 165.293L457.839 165.627C457.815 166.024 457.925 166.405 458.169 166.771C458.425 167.129 458.828 167.382 459.378 167.53C459.89 167.667 460.296 167.662 460.594 167.514C460.895 167.357 461.086 167.128 461.166 166.829C461.282 166.394 461.201 166.062 460.921 165.831C460.65 165.604 460.246 165.355 459.707 165.087C459.341 164.906 458.985 164.691 458.637 164.443C458.29 164.194 458.02 163.905 457.829 163.574C457.641 163.234 457.605 162.846 457.722 162.412C457.89 161.784 458.259 161.334 458.829 161.062C459.411 160.783 460.103 160.751 460.904 160.966C461.667 161.171 462.239 161.531 462.618 162.047C463.01 162.555 463.15 163.173 463.038 163.898L461.835 163.576C461.886 163.196 461.803 162.869 461.586 162.593C461.383 162.311 461.058 162.11 460.614 161.991C460.179 161.875 459.817 161.876 459.526 161.995C459.245 162.116 459.065 162.326 458.984 162.626C458.907 162.916 458.996 163.183 459.251 163.427C459.516 163.674 459.894 163.926 460.384 164.181C460.803 164.397 461.191 164.63 461.548 164.881C461.917 165.125 462.19 165.421 462.366 165.768C462.555 166.109 462.579 166.54 462.439 167.061C462.275 167.711 461.885 168.181 461.269 168.471C460.665 168.755 459.938 168.783 459.088 168.555ZM466.141 170.258C465.484 170.082 465.01 169.784 464.719 169.365C464.427 168.945 464.393 168.32 464.616 167.489L465.675 163.534L464.429 163.2L464.705 162.171L465.951 162.505L466.572 160.823L467.63 161.107L467.168 162.831L469.284 163.398L469.008 164.426L466.893 163.86L465.833 167.815C465.711 168.269 465.72 168.603 465.859 168.816C466.002 169.02 466.304 169.184 466.768 169.308L467.522 169.51L467.242 170.553L466.141 170.258ZM471.248 171.813C470.649 171.653 470.179 171.418 469.837 171.109C469.496 170.8 469.274 170.451 469.171 170.061C469.068 169.671 469.07 169.278 469.176 168.882C469.373 168.148 469.805 167.658 470.471 167.412C471.137 167.166 471.953 167.172 472.919 167.431L474.861 167.951L474.884 167.864C475.052 167.237 475.015 166.719 474.772 166.313C474.532 165.896 474.136 165.614 473.585 165.467C473.112 165.34 472.669 165.351 472.257 165.499C471.857 165.64 471.552 165.926 471.344 166.357L470.098 166.023C470.286 165.514 470.577 165.121 470.973 164.844C471.377 164.57 471.831 164.401 472.335 164.34C472.84 164.268 473.349 164.301 473.861 164.438C474.866 164.707 475.547 165.179 475.904 165.855C476.274 166.523 476.339 167.302 476.101 168.191L474.917 172.61L473.83 172.319L474.103 171.01C473.792 171.361 473.399 171.628 472.926 171.812C472.464 171.989 471.905 171.989 471.248 171.813ZM471.712 170.835C472.176 170.959 472.604 170.944 472.997 170.791C473.4 170.64 473.74 170.395 474.018 170.055C474.295 169.715 474.491 169.333 474.605 168.908L474.608 168.893L472.768 168.4C472.054 168.209 471.513 168.198 471.146 168.369C470.792 168.533 470.565 168.799 470.467 169.166C470.366 169.542 470.42 169.883 470.628 170.187C470.849 170.484 471.21 170.7 471.712 170.835ZM478.05 173.449L477.875 165.7L479.092 166.026L479.103 172.07L482.294 166.884L483.671 167.253L483.856 173.343L486.873 168.111L488.104 168.441L484.078 175.064L482.832 174.73L482.652 168.331L479.296 173.783L478.05 173.449ZM489.614 176.734C489.015 176.574 488.545 176.339 488.203 176.03C487.862 175.721 487.639 175.372 487.537 174.982C487.434 174.592 487.436 174.199 487.542 173.803C487.739 173.069 488.17 172.579 488.837 172.333C489.503 172.087 490.319 172.093 491.285 172.352L493.227 172.873L493.25 172.786C493.418 172.158 493.381 171.64 493.138 171.234C492.897 170.817 492.502 170.535 491.951 170.388C491.478 170.261 491.035 170.272 490.623 170.42C490.222 170.561 489.918 170.847 489.709 171.278L488.463 170.944C488.651 170.435 488.943 170.042 489.338 169.765C489.743 169.491 490.197 169.322 490.7 169.261C491.206 169.189 491.715 169.222 492.227 169.359C493.231 169.628 493.912 170.101 494.27 170.776C494.639 171.445 494.705 172.223 494.467 173.112L493.283 177.531L492.196 177.24L492.469 175.931C492.158 176.282 491.765 176.55 491.291 176.733C490.83 176.91 490.271 176.91 489.614 176.734ZM490.078 175.756C490.542 175.88 490.97 175.865 491.363 175.712C491.766 175.561 492.106 175.316 492.383 174.976C492.661 174.636 492.856 174.254 492.97 173.829L492.974 173.814L491.134 173.321C490.419 173.13 489.879 173.119 489.512 173.29C489.157 173.454 488.931 173.72 488.833 174.087C488.732 174.463 488.785 174.804 488.994 175.108C489.214 175.405 489.576 175.621 490.078 175.756ZM447.986 178.5C447.581 178.392 447.223 178.239 446.913 178.042L446.006 178.529C446.092 178.635 446.204 178.737 446.343 178.836C446.494 178.929 446.713 179.039 447 179.168C447.289 179.287 447.697 179.443 448.225 179.636C449.173 179.962 449.804 180.369 450.119 180.857C450.433 181.345 450.509 181.894 450.346 182.502C450.235 182.918 450.012 183.283 449.68 183.597C449.357 183.914 448.926 184.13 448.388 184.245C447.86 184.362 447.228 184.322 446.494 184.126C445.847 183.952 445.296 183.711 444.84 183.403C444.382 183.104 444.059 182.743 443.872 182.321C443.683 181.907 443.658 181.44 443.798 180.919C443.87 180.648 444.021 180.373 444.252 180.093C444.479 179.823 444.829 179.601 445.3 179.427C445.111 179.283 444.952 179.142 444.823 179.004C444.707 178.859 444.603 178.706 444.511 178.547L444.6 178.214L446.158 177.327C445.717 176.691 445.603 175.977 445.815 175.185C445.942 174.712 446.168 174.312 446.494 173.985C446.82 173.658 447.225 173.441 447.709 173.332C448.196 173.215 448.744 173.237 449.353 173.4C449.768 173.511 450.129 173.67 450.436 173.877L453.088 174.587L452.843 175.5L451.48 175.197C451.652 175.678 451.666 176.184 451.524 176.715C451.397 177.188 451.166 177.587 450.831 177.911C450.505 178.238 450.098 178.461 449.611 178.578C449.136 178.689 448.595 178.663 447.986 178.5ZM448.254 177.5C448.766 177.638 449.207 177.616 449.576 177.435C449.958 177.248 450.216 176.903 450.35 176.401C450.482 175.908 450.429 175.49 450.189 175.146C449.962 174.795 449.593 174.552 449.081 174.414C448.559 174.275 448.108 174.299 447.726 174.486C447.357 174.667 447.106 175.003 446.974 175.496C446.84 175.998 446.886 176.425 447.113 176.775C447.352 177.119 447.732 177.361 448.254 177.5ZM445.017 181.121C444.887 181.604 444.994 182.016 445.338 182.356C445.679 182.706 446.154 182.963 446.762 183.126C447.361 183.287 447.874 183.284 448.301 183.119C448.738 182.957 449.015 182.658 449.132 182.224C449.214 181.914 449.161 181.61 448.972 181.311C448.781 181.022 448.352 180.767 447.686 180.547C447.165 180.366 446.719 180.195 446.349 180.034C445.896 180.14 445.574 180.297 445.384 180.505C445.191 180.722 445.068 180.928 445.017 181.121ZM452.535 182.142L454.461 174.955L455.562 175.25L455.294 176.654C455.643 176.24 456.082 175.954 456.612 175.795C457.141 175.637 457.738 175.647 458.405 175.826L458.063 177.101L457.73 177.011C457.305 176.897 456.893 176.87 456.494 176.929C456.098 176.978 455.746 177.153 455.437 177.453C455.129 177.754 454.891 178.218 454.723 178.846L453.752 182.468L452.535 182.142ZM460.143 184.366C459.544 184.206 459.074 183.971 458.732 183.662C458.39 183.353 458.168 183.004 458.065 182.614C457.963 182.224 457.965 181.831 458.071 181.435C458.267 180.701 458.699 180.211 459.365 179.965C460.032 179.719 460.848 179.726 461.814 179.985L463.755 180.505L463.779 180.418C463.947 179.79 463.909 179.273 463.666 178.866C463.426 178.45 463.03 178.168 462.48 178.02C462.007 177.893 461.564 177.904 461.151 178.052C460.751 178.194 460.447 178.48 460.238 178.91L458.992 178.576C459.18 178.068 459.472 177.675 459.867 177.398C460.272 177.123 460.726 176.955 461.229 176.893C461.735 176.821 462.244 176.854 462.756 176.991C463.76 177.261 464.441 177.733 464.798 178.408C465.168 179.077 465.234 179.855 464.996 180.744L463.812 185.163L462.725 184.872L462.998 183.563C462.686 183.914 462.294 184.182 461.82 184.366C461.359 184.542 460.8 184.542 460.143 184.366ZM460.607 183.388C461.07 183.512 461.499 183.498 461.892 183.344C462.295 183.193 462.635 182.948 462.912 182.608C463.19 182.269 463.385 181.886 463.499 181.461L463.503 181.447L461.663 180.954C460.948 180.762 460.407 180.752 460.041 180.923C459.686 181.086 459.46 181.352 459.361 181.719C459.26 182.096 459.314 182.436 459.522 182.74C459.743 183.038 460.104 183.254 460.607 183.388ZM468.279 186.36C467.622 186.184 467.148 185.886 466.857 185.467C466.566 185.047 466.531 184.422 466.754 183.591L467.814 179.636L466.568 179.302L466.843 178.273L468.089 178.607L468.711 176.925L469.768 177.209L469.306 178.933L471.422 179.5L471.146 180.529L469.031 179.962L467.971 183.917C467.849 184.371 467.858 184.705 467.998 184.918C468.14 185.122 468.443 185.286 468.906 185.41L469.66 185.612L469.38 186.655L468.279 186.36ZM474.134 178.518C473.893 178.454 473.71 178.322 473.588 178.124C473.477 177.918 473.454 177.694 473.519 177.453C473.581 177.221 473.71 177.049 473.906 176.935C474.112 176.825 474.335 176.802 474.577 176.867C474.808 176.929 474.986 177.059 475.109 177.258C475.231 177.456 475.262 177.671 475.2 177.903C475.135 178.145 474.998 178.326 474.79 178.446C474.585 178.556 474.366 178.58 474.134 178.518ZM471.173 187.136L473.098 179.949L474.315 180.275L472.39 187.462L471.173 187.136ZM477.215 188.941C476.356 188.711 475.699 188.302 475.246 187.714C474.792 187.127 474.617 186.449 474.72 185.679L475.966 186.013C475.942 186.41 476.052 186.792 476.296 187.157C476.552 187.516 476.955 187.769 477.505 187.916C478.017 188.053 478.423 188.048 478.721 187.9C479.022 187.743 479.213 187.514 479.293 187.215C479.409 186.78 479.328 186.448 479.048 186.217C478.777 185.99 478.373 185.742 477.834 185.473C477.468 185.292 477.112 185.078 476.764 184.829C476.417 184.581 476.147 184.291 475.956 183.96C475.768 183.62 475.732 183.233 475.849 182.798C476.017 182.17 476.386 181.72 476.956 181.449C477.538 181.17 478.23 181.138 479.031 181.352C479.794 181.557 480.366 181.917 480.745 182.433C481.137 182.942 481.277 183.559 481.165 184.285L479.962 183.962C480.013 183.582 479.929 183.255 479.713 182.979C479.51 182.697 479.185 182.496 478.741 182.377C478.306 182.261 477.944 182.262 477.653 182.381C477.372 182.502 477.191 182.713 477.111 183.012C477.034 183.302 477.123 183.569 477.378 183.813C477.643 184.06 478.021 184.312 478.511 184.567C478.93 184.783 479.318 185.016 479.675 185.267C480.044 185.511 480.317 185.807 480.493 186.154C480.682 186.495 480.706 186.926 480.566 187.447C480.402 188.097 480.012 188.567 479.396 188.858C478.792 189.141 478.065 189.169 477.215 188.941ZM482.767 187.23L484.587 179.859L485.905 180.213L483.796 187.505L482.767 187.23ZM482.545 190.261C482.304 190.196 482.122 190.064 481.999 189.866C481.888 189.66 481.864 189.441 481.926 189.209C481.988 188.978 482.117 188.805 482.313 188.692C482.522 188.572 482.746 188.544 482.988 188.609C483.22 188.671 483.391 188.805 483.502 189.01C483.624 189.209 483.655 189.424 483.593 189.656C483.53 189.888 483.395 190.064 483.187 190.184C482.991 190.297 482.777 190.323 482.545 190.261Z" fill="#111111"/>
<defs>
<clipPath id="clip0_0_1">
<rect width="186" height="186" fill="white"/>
</clipPath>
<clipPath id="clip1_0_1">
<rect width="30" height="30" fill="white" transform="matrix(-0.965926 -0.258819 -0.258819 0.965926 492.742 130.765)"/>
</clipPath>
</defs>
</svg>
